<svg width="456mm" height="303mm" viewBox="0 0 456 303" xmlns="http://www.w3.org/2000/svg" version="1.1" preserveAspectRatio="xMidYMid meet"><g id="svgGroup" stroke-linecap="round" fill-rule="evenodd" font-size="9pt" stroke="#000" stroke-width="0.25mm" fill="none" style="stroke:#000;stroke-width:0.25mm;fill:none"><path d="M 0 153 L 0 175.5 L 6 175.5 L 6 190.5 L 0 190.5 L 0 205.5 L 6 205.5 L 6 220.5 L 0 220.5 L 0 235.5 L 6 235.5 L 6 250.5 L 0 250.5 L 0 265.5 L 6 265.5 L 6 280.5 L 0 280.5 L 0 295.5 L 0 303 L 22.5 303 L 22.5 297 L 37.5 297 L 37.5 303 L 52.5 303 L 52.5 297 L 67.5 297 L 67.5 303 L 82.5 303 L 82.5 297 L 97.5 297 L 97.5 303 L 112.5 303 L 112.5 297 L 127.5 297 L 127.5 303 L 142.5 303 L 150 303 L 150 280.5 L 144 280.5 L 144 265.5 L 150 265.5 L 150 250.5 L 144 250.5 L 144 235.5 L 150 235.5 L 150 220.5 L 144 220.5 L 144 205.5 L 150 205.5 L 150 190.5 L 144 190.5 L 144 175.5 L 150 175.5 L 150 160.5 L 150 153 L 0 153 Z" id="front_outsideCutPath" stroke="#FF0000" stroke-width="0.1" style="stroke:#FF0000;stroke-width:0.1" vector-effect="non-scaling-stroke"/><path d="M 159 153 L 159 175.5 L 153 175.5 L 153 190.5 L 159 190.5 L 159 205.5 L 153 205.5 L 153 220.5 L 159 220.5 L 159 235.5 L 153 235.5 L 153 250.5 L 159 250.5 L 159 265.5 L 153 265.5 L 153 280.5 L 159 280.5 L 159 295.5 L 159 303 L 175.5 303 L 175.5 297 L 190.5 297 L 190.5 303 L 205.5 303 L 205.5 297 L 220.5 297 L 220.5 303 L 235.5 303 L 235.5 297 L 250.5 297 L 250.5 303 L 265.5 303 L 265.5 297 L 280.5 297 L 280.5 303 L 295.5 303 L 297 303 L 297 280.5 L 303 280.5 L 303 265.5 L 297 265.5 L 297 250.5 L 303 250.5 L 303 235.5 L 297 235.5 L 297 220.5 L 303 220.5 L 303 205.5 L 297 205.5 L 297 190.5 L 303 190.5 L 303 175.5 L 297 175.5 L 297 160.5 L 297 153 L 159 153 Z" id="left_outsideCutPath" stroke="#FF0000" stroke-width="0.1" style="stroke:#FF0000;stroke-width:0.1" vector-effect="non-scaling-stroke"/><path d="M 0 0 L 0 22.5 L 6 22.5 L 6 37.5 L 0 37.5 L 0 52.5 L 6 52.5 L 6 67.5 L 0 67.5 L 0 82.5 L 6 82.5 L 6 97.5 L 0 97.5 L 0 112.5 L 6 112.5 L 6 127.5 L 0 127.5 L 0 142.5 L 0 150 L 22.5 150 L 22.5 144 L 37.5 144 L 37.5 150 L 52.5 150 L 52.5 144 L 67.5 144 L 67.5 150 L 82.5 150 L 82.5 144 L 97.5 144 L 97.5 150 L 112.5 150 L 112.5 144 L 127.5 144 L 127.5 150 L 142.5 150 L 150 150 L 150 127.5 L 144 127.5 L 144 112.5 L 150 112.5 L 150 97.5 L 144 97.5 L 144 82.5 L 150 82.5 L 150 67.5 L 144 67.5 L 144 52.5 L 150 52.5 L 150 37.5 L 144 37.5 L 144 22.5 L 150 22.5 L 150 7.5 L 150 0 L 0 0 Z" id="back_outsideCutPath" stroke="#FF0000" stroke-width="0.1" style="stroke:#FF0000;stroke-width:0.1" vector-effect="non-scaling-stroke"/><path d="M 159 0 L 159 22.5 L 153 22.5 L 153 37.5 L 159 37.5 L 159 52.5 L 153 52.5 L 153 67.5 L 159 67.5 L 159 82.5 L 153 82.5 L 153 97.5 L 159 97.5 L 159 112.5 L 153 112.5 L 153 127.5 L 159 127.5 L 159 142.5 L 159 150 L 175.5 150 L 175.5 144 L 190.5 144 L 190.5 150 L 205.5 150 L 205.5 144 L 220.5 144 L 220.5 150 L 235.5 150 L 235.5 144 L 250.5 144 L 250.5 150 L 265.5 150 L 265.5 144 L 280.5 144 L 280.5 150 L 295.5 150 L 297 150 L 297 127.5 L 303 127.5 L 303 112.5 L 297 112.5 L 297 97.5 L 303 97.5 L 303 82.5 L 297 82.5 L 297 67.5 L 303 67.5 L 303 52.5 L 297 52.5 L 297 37.5 L 303 37.5 L 303 22.5 L 297 22.5 L 297 7.5 L 297 0 L 159 0 Z" id="right_outsideCutPath" stroke="#FF0000" stroke-width="0.1" style="stroke:#FF0000;stroke-width:0.1" vector-effect="non-scaling-stroke"/><path d="M 312 159 L 312 175.5 L 306 175.5 L 306 190.5 L 312 190.5 L 312 205.5 L 306 205.5 L 306 220.5 L 312 220.5 L 312 235.5 L 306 235.5 L 306 250.5 L 312 250.5 L 312 265.5 L 306 265.5 L 306 280.5 L 312 280.5 L 312 295.5 L 312 297 L 328.5 297 L 328.5 303 L 343.5 303 L 343.5 297 L 358.5 297 L 358.5 303 L 373.5 303 L 373.5 297 L 388.5 297 L 388.5 303 L 403.5 303 L 403.5 297 L 418.5 297 L 418.5 303 L 433.5 303 L 433.5 297 L 448.5 297 L 450 297 L 450 280.5 L 456 280.5 L 456 265.5 L 450 265.5 L 450 250.5 L 456 250.5 L 456 235.5 L 450 235.5 L 450 220.5 L 456 220.5 L 456 205.5 L 450 205.5 L 450 190.5 L 456 190.5 L 456 175.5 L 450 175.5 L 450 160.5 L 450 159 L 433.5 159 L 433.5 153 L 418.5 153 L 418.5 159 L 403.5 159 L 403.5 153 L 388.5 153 L 388.5 159 L 373.5 159 L 373.5 153 L 358.5 153 L 358.5 159 L 343.5 159 L 343.5 153 L 328.5 153 L 328.5 159 L 313.5 159 L 312 159 Z" id="bottom_outsideCutPath" stroke="#FF0000" stroke-width="0.1" style="stroke:#FF0000;stroke-width:0.1" vector-effect="non-scaling-stroke"/></g></svg>