<svg width="606mm" height="403mm" viewBox="0 0 606 403" xmlns="http://www.w3.org/2000/svg" version="1.1" preserveAspectRatio="xMidYMid meet"><g id="svgGroup" stroke-linecap="round" fill-rule="evenodd" font-size="9pt" stroke="#000" stroke-width="0.25mm" fill="none" style="stroke:#000;stroke-width:0.25mm;fill:none"><path d="M 0 203 L 0 218.625 L 6 218.625 L 6 237.375 L 0 237.375 L 0 256.125 L 6 256.125 L 6 274.875 L 0 274.875 L 0 293.625 L 6 293.625 L 6 312.375 L 0 312.375 L 0 331.125 L 6 331.125 L 6 349.875 L 0 349.875 L 0 368.625 L 6 368.625 L 6 387.375 L 0 387.375 L 0 403 L 15.625 403 L 15.625 397 L 34.375 397 L 34.375 403 L 53.125 403 L 53.125 397 L 71.875 397 L 71.875 403 L 90.625 403 L 90.625 397 L 109.375 397 L 109.375 403 L 128.125 403 L 128.125 397 L 146.875 397 L 146.875 403 L 165.625 403 L 165.625 397 L 184.375 397 L 184.375 403 L 200 403 L 200 387.375 L 194 387.375 L 194 368.625 L 200 368.625 L 200 349.875 L 194 349.875 L 194 331.125 L 200 331.125 L 200 312.375 L 194 312.375 L 194 293.625 L 200 293.625 L 200 274.875 L 194 274.875 L 194 256.125 L 200 256.125 L 200 237.375 L 194 237.375 L 194 218.625 L 200 218.625 L 200 203 L 0 203 Z" id="front_outsideCutPath" stroke="#FF0000" stroke-width="0.1" style="stroke:#FF0000;stroke-width:0.1" vector-effect="non-scaling-stroke"/><path d="M 209 203 L 209 218.625 L 203 218.625 L 203 237.375 L 209 237.375 L 209 256.125 L 203 256.125 L 203 274.875 L 209 274.875 L 209 293.625 L 203 293.625 L 203 312.375 L 209 312.375 L 209 331.125 L 203 331.125 L 203 349.875 L 209 349.875 L 209 368.625 L 203 368.625 L 203 387.375 L 209 387.375 L 209 403 L 218.625 403 L 218.625 397 L 237.375 397 L 237.375 403 L 256.125 403 L 256.125 397 L 274.875 397 L 274.875 403 L 293.625 403 L 293.625 397 L 312.375 397 L 312.375 403 L 331.125 403 L 331.125 397 L 349.875 397 L 349.875 403 L 368.625 403 L 368.625 397 L 387.375 397 L 387.375 403 L 397 403 L 397 387.375 L 403 387.375 L 403 368.625 L 397 368.625 L 397 349.875 L 403 349.875 L 403 331.125 L 397 331.125 L 397 312.375 L 403 312.375 L 403 293.625 L 397 293.625 L 397 274.875 L 403 274.875 L 403 256.125 L 397 256.125 L 397 237.375 L 403 237.375 L 403 218.625 L 397 218.625 L 397 203 L 209 203 Z" id="left_outsideCutPath" stroke="#FF0000" stroke-width="0.1" style="stroke:#FF0000;stroke-width:0.1" vector-effect="non-scaling-stroke"/><path d="M 0 0 L 0 15.625 L 6 15.625 L 6 34.375 L 0 34.375 L 0 53.125 L 6 53.125 L 6 71.875 L 0 71.875 L 0 90.625 L 6 90.625 L 6 109.375 L 0 109.375 L 0 128.125 L 6 128.125 L 6 146.875 L 0 146.875 L 0 165.625 L 6 165.625 L 6 184.375 L 0 184.375 L 0 200 L 15.625 200 L 15.625 194 L 34.375 194 L 34.375 200 L 53.125 200 L 53.125 194 L 71.875 194 L 71.875 200 L 90.625 200 L 90.625 194 L 109.375 194 L 109.375 200 L 128.125 200 L 128.125 194 L 146.875 194 L 146.875 200 L 165.625 200 L 165.625 194 L 184.375 194 L 184.375 200 L 200 200 L 200 184.375 L 194 184.375 L 194 165.625 L 200 165.625 L 200 146.875 L 194 146.875 L 194 128.125 L 200 128.125 L 200 109.375 L 194 109.375 L 194 90.625 L 200 90.625 L 200 71.875 L 194 71.875 L 194 53.125 L 200 53.125 L 200 34.375 L 194 34.375 L 194 15.625 L 200 15.625 L 200 0 L 0 0 Z" id="back_outsideCutPath" stroke="#FF0000" stroke-width="0.1" style="stroke:#FF0000;stroke-width:0.1" vector-effect="non-scaling-stroke"/><path d="M 209 0 L 209 15.625 L 203 15.625 L 203 34.375 L 209 34.375 L 209 53.125 L 203 53.125 L 203 71.875 L 209 71.875 L 209 90.625 L 203 90.625 L 203 109.375 L 209 109.375 L 209 128.125 L 203 128.125 L 203 146.875 L 209 146.875 L 209 165.625 L 203 165.625 L 203 184.375 L 209 184.375 L 209 200 L 218.625 200 L 218.625 194 L 237.375 194 L 237.375 200 L 256.125 200 L 256.125 194 L 274.875 194 L 274.875 200 L 293.625 200 L 293.625 194 L 312.375 194 L 312.375 200 L 331.125 200 L 331.125 194 L 349.875 194 L 349.875 200 L 368.625 200 L 368.625 194 L 387.375 194 L 387.375 200 L 397 200 L 397 184.375 L 403 184.375 L 403 165.625 L 397 165.625 L 397 146.875 L 403 146.875 L 403 128.125 L 397 128.125 L 397 109.375 L 403 109.375 L 403 90.625 L 397 90.625 L 397 71.875 L 403 71.875 L 403 53.125 L 397 53.125 L 397 34.375 L 403 34.375 L 403 15.625 L 397 15.625 L 397 0 L 209 0 Z" id="right_outsideCutPath" stroke="#FF0000" stroke-width="0.1" style="stroke:#FF0000;stroke-width:0.1" vector-effect="non-scaling-stroke"/><path d="M 412 209 L 412 218.625 L 406 218.625 L 406 237.375 L 412 237.375 L 412 256.125 L 406 256.125 L 406 274.875 L 412 274.875 L 412 293.625 L 406 293.625 L 406 312.375 L 412 312.375 L 412 331.125 L 406 331.125 L 406 349.875 L 412 349.875 L 412 368.625 L 406 368.625 L 406 387.375 L 412 387.375 L 412 397 L 421.625 397 L 421.625 403 L 440.375 403 L 440.375 397 L 459.125 397 L 459.125 403 L 477.875 403 L 477.875 397 L 496.625 397 L 496.625 403 L 515.375 403 L 515.375 397 L 534.125 397 L 534.125 403 L 552.875 403 L 552.875 397 L 571.625 397 L 571.625 403 L 590.375 403 L 590.375 397 L 600 397 L 600 387.375 L 606 387.375 L 606 368.625 L 600 368.625 L 600 349.875 L 606 349.875 L 606 331.125 L 600 331.125 L 600 312.375 L 606 312.375 L 606 293.625 L 600 293.625 L 600 274.875 L 606 274.875 L 606 256.125 L 600 256.125 L 600 237.375 L 606 237.375 L 606 218.625 L 600 218.625 L 600 209 L 590.375 209 L 590.375 203 L 571.625 203 L 571.625 209 L 552.875 209 L 552.875 203 L 534.125 203 L 534.125 209 L 515.375 209 L 515.375 203 L 496.625 203 L 496.625 209 L 477.875 209 L 477.875 203 L 459.125 203 L 459.125 209 L 440.375 209 L 440.375 203 L 421.625 203 L 421.625 209 L 412 209 Z" id="bottom_outsideCutPath" stroke="#FF0000" stroke-width="0.1" style="stroke:#FF0000;stroke-width:0.1" vector-effect="non-scaling-stroke"/></g></svg>