<svg width="1146mm" height="763mm" viewBox="0 0 1146 763" xmlns="http://www.w3.org/2000/svg" version="1.1" preserveAspectRatio="xMidYMid meet"><g id="svgGroup" stroke-linecap="round" fill-rule="evenodd" font-size="9pt" stroke="#000" stroke-width="0.25mm" fill="none" style="stroke:#000;stroke-width:0.25mm;fill:none"><path d="M 0 383 L 0 411 L 6 411 L 6 447 L 0 447 L 0 483 L 6 483 L 6 519 L 0 519 L 0 555 L 6 555 L 6 591 L 0 591 L 0 627 L 6 627 L 6 663 L 0 663 L 0 699 L 6 699 L 6 735 L 0 735 L 0 763 L 28 763 L 28 757 L 64 757 L 64 763 L 100 763 L 100 757 L 136 757 L 136 763 L 172 763 L 172 757 L 208 757 L 208 763 L 244 763 L 244 757 L 280 757 L 280 763 L 316 763 L 316 757 L 352 757 L 352 763 L 380 763 L 380 735 L 374 735 L 374 699 L 380 699 L 380 663 L 374 663 L 374 627 L 380 627 L 380 591 L 374 591 L 374 555 L 380 555 L 380 519 L 374 519 L 374 483 L 380 483 L 380 447 L 374 447 L 374 411 L 380 411 L 380 383 L 0 383 Z" id="front_outsideCutPath" stroke="#FF0000" stroke-width="0.1" style="stroke:#FF0000;stroke-width:0.1" vector-effect="non-scaling-stroke"/><path d="M 389 383 L 389 411 L 383 411 L 383 447 L 389 447 L 389 483 L 383 483 L 383 519 L 389 519 L 389 555 L 383 555 L 383 591 L 389 591 L 389 627 L 383 627 L 383 663 L 389 663 L 389 699 L 383 699 L 383 735 L 389 735 L 389 763 L 411 763 L 411 757 L 447 757 L 447 763 L 483 763 L 483 757 L 519 757 L 519 763 L 555 763 L 555 757 L 591 757 L 591 763 L 627 763 L 627 757 L 663 757 L 663 763 L 699 763 L 699 757 L 735 757 L 735 763 L 757 763 L 757 735 L 763 735 L 763 699 L 757 699 L 757 663 L 763 663 L 763 627 L 757 627 L 757 591 L 763 591 L 763 555 L 757 555 L 757 519 L 763 519 L 763 483 L 757 483 L 757 447 L 763 447 L 763 411 L 757 411 L 757 383 L 389 383 Z" id="left_outsideCutPath" stroke="#FF0000" stroke-width="0.1" style="stroke:#FF0000;stroke-width:0.1" vector-effect="non-scaling-stroke"/><path d="M 0 0 L 0 28 L 6 28 L 6 64 L 0 64 L 0 100 L 6 100 L 6 136 L 0 136 L 0 172 L 6 172 L 6 208 L 0 208 L 0 244 L 6 244 L 6 280 L 0 280 L 0 316 L 6 316 L 6 352 L 0 352 L 0 380 L 28 380 L 28 374 L 64 374 L 64 380 L 100 380 L 100 374 L 136 374 L 136 380 L 172 380 L 172 374 L 208 374 L 208 380 L 244 380 L 244 374 L 280 374 L 280 380 L 316 380 L 316 374 L 352 374 L 352 380 L 380 380 L 380 352 L 374 352 L 374 316 L 380 316 L 380 280 L 374 280 L 374 244 L 380 244 L 380 208 L 374 208 L 374 172 L 380 172 L 380 136 L 374 136 L 374 100 L 380 100 L 380 64 L 374 64 L 374 28 L 380 28 L 380 0 L 0 0 Z" id="back_outsideCutPath" stroke="#FF0000" stroke-width="0.1" style="stroke:#FF0000;stroke-width:0.1" vector-effect="non-scaling-stroke"/><path d="M 389 0 L 389 28 L 383 28 L 383 64 L 389 64 L 389 100 L 383 100 L 383 136 L 389 136 L 389 172 L 383 172 L 383 208 L 389 208 L 389 244 L 383 244 L 383 280 L 389 280 L 389 316 L 383 316 L 383 352 L 389 352 L 389 380 L 411 380 L 411 374 L 447 374 L 447 380 L 483 380 L 483 374 L 519 374 L 519 380 L 555 380 L 555 374 L 591 374 L 591 380 L 627 380 L 627 374 L 663 374 L 663 380 L 699 380 L 699 374 L 735 374 L 735 380 L 757 380 L 757 352 L 763 352 L 763 316 L 757 316 L 757 280 L 763 280 L 763 244 L 757 244 L 757 208 L 763 208 L 763 172 L 757 172 L 757 136 L 763 136 L 763 100 L 757 100 L 757 64 L 763 64 L 763 28 L 757 28 L 757 0 L 389 0 Z" id="right_outsideCutPath" stroke="#FF0000" stroke-width="0.1" style="stroke:#FF0000;stroke-width:0.1" vector-effect="non-scaling-stroke"/><path d="M 772 389 L 772 411 L 766 411 L 766 447 L 772 447 L 772 483 L 766 483 L 766 519 L 772 519 L 772 555 L 766 555 L 766 591 L 772 591 L 772 627 L 766 627 L 766 663 L 772 663 L 772 699 L 766 699 L 766 735 L 772 735 L 772 757 L 794 757 L 794 763 L 830 763 L 830 757 L 866 757 L 866 763 L 902 763 L 902 757 L 938 757 L 938 763 L 974 763 L 974 757 L 1010 757 L 1010 763 L 1046 763 L 1046 757 L 1082 757 L 1082 763 L 1118 763 L 1118 757 L 1140 757 L 1140 735 L 1146 735 L 1146 699 L 1140 699 L 1140 663 L 1146 663 L 1146 627 L 1140 627 L 1140 591 L 1146 591 L 1146 555 L 1140 555 L 1140 519 L 1146 519 L 1146 483 L 1140 483 L 1140 447 L 1146 447 L 1146 411 L 1140 411 L 1140 389 L 1118 389 L 1118 383 L 1082 383 L 1082 389 L 1046 389 L 1046 383 L 1010 383 L 1010 389 L 974 389 L 974 383 L 938 383 L 938 389 L 902 389 L 902 383 L 866 383 L 866 389 L 830 389 L 830 383 L 794 383 L 794 389 L 772 389 Z" id="bottom_outsideCutPath" stroke="#FF0000" stroke-width="0.1" style="stroke:#FF0000;stroke-width:0.1" vector-effect="non-scaling-stroke"/></g></svg>