<svg width="1146mm" height="380mm" viewBox="0 0 1146 380" xmlns="http://www.w3.org/2000/svg" version="1.1" preserveAspectRatio="xMidYMid meet"><g id="svgGroup" stroke-linecap="round" fill-rule="evenodd" font-size="9pt" stroke="#000" stroke-width="0.25mm" fill="none" style="stroke:#000;stroke-width:0.25mm;fill:none"><path d="M 0 280 L 0 312.75 L 6 312.75 L 6 347.25 L 0 347.25 L 0 380 L 34.75 380 L 34.75 374 L 69.25 374 L 69.25 380 L 103.75 380 L 103.75 374 L 138.25 374 L 138.25 380 L 172.75 380 L 172.75 374 L 207.25 374 L 207.25 380 L 241.75 380 L 241.75 374 L 276.25 374 L 276.25 380 L 310.75 380 L 310.75 374 L 345.25 374 L 345.25 380 L 380 380 L 380 347.25 L 374 347.25 L 374 312.75 L 380 312.75 L 380 280 L 0 280 Z" id="front_outsideCutPath" stroke="#FF0000" stroke-width="0.1" style="stroke:#FF0000;stroke-width:0.1" vector-effect="non-scaling-stroke"/><path d="M 389 280 L 389 312.75 L 383 312.75 L 383 347.25 L 389 347.25 L 389 380 L 417.75 380 L 417.75 374 L 452.25 374 L 452.25 380 L 486.75 380 L 486.75 374 L 521.25 374 L 521.25 380 L 555.75 380 L 555.75 374 L 590.25 374 L 590.25 380 L 624.75 380 L 624.75 374 L 659.25 374 L 659.25 380 L 693.75 380 L 693.75 374 L 728.25 374 L 728.25 380 L 757 380 L 757 347.25 L 763 347.25 L 763 312.75 L 757 312.75 L 757 280 L 389 280 Z" id="left_outsideCutPath" stroke="#FF0000" stroke-width="0.1" style="stroke:#FF0000;stroke-width:0.1" vector-effect="non-scaling-stroke"/><path d="M 0 177 L 0 209.75 L 6 209.75 L 6 244.25 L 0 244.25 L 0 277 L 34.75 277 L 34.75 271 L 69.25 271 L 69.25 277 L 103.75 277 L 103.75 271 L 138.25 271 L 138.25 277 L 172.75 277 L 172.75 271 L 207.25 271 L 207.25 277 L 241.75 277 L 241.75 271 L 276.25 271 L 276.25 277 L 310.75 277 L 310.75 271 L 345.25 271 L 345.25 277 L 380 277 L 380 244.25 L 374 244.25 L 374 209.75 L 380 209.75 L 380 177 L 0 177 Z" id="back_outsideCutPath" stroke="#FF0000" stroke-width="0.1" style="stroke:#FF0000;stroke-width:0.1" vector-effect="non-scaling-stroke"/><path d="M 389 177 L 389 209.75 L 383 209.75 L 383 244.25 L 389 244.25 L 389 277 L 417.75 277 L 417.75 271 L 452.25 271 L 452.25 277 L 486.75 277 L 486.75 271 L 521.25 271 L 521.25 277 L 555.75 277 L 555.75 271 L 590.25 271 L 590.25 277 L 624.75 277 L 624.75 271 L 659.25 271 L 659.25 277 L 693.75 277 L 693.75 271 L 728.25 271 L 728.25 277 L 757 277 L 757 244.25 L 763 244.25 L 763 209.75 L 757 209.75 L 757 177 L 389 177 Z" id="right_outsideCutPath" stroke="#FF0000" stroke-width="0.1" style="stroke:#FF0000;stroke-width:0.1" vector-effect="non-scaling-stroke"/><path d="M 772 6 L 772 34.75 L 766 34.75 L 766 69.25 L 772 69.25 L 772 103.75 L 766 103.75 L 766 138.25 L 772 138.25 L 772 172.75 L 766 172.75 L 766 207.25 L 772 207.25 L 772 241.75 L 766 241.75 L 766 276.25 L 772 276.25 L 772 310.75 L 766 310.75 L 766 345.25 L 772 345.25 L 772 374 L 800.75 374 L 800.75 380 L 835.25 380 L 835.25 374 L 869.75 374 L 869.75 380 L 904.25 380 L 904.25 374 L 938.75 374 L 938.75 380 L 973.25 380 L 973.25 374 L 1007.75 374 L 1007.75 380 L 1042.25 380 L 1042.25 374 L 1076.75 374 L 1076.75 380 L 1111.25 380 L 1111.25 374 L 1140 374 L 1140 345.25 L 1146 345.25 L 1146 310.75 L 1140 310.75 L 1140 276.25 L 1146 276.25 L 1146 241.75 L 1140 241.75 L 1140 207.25 L 1146 207.25 L 1146 172.75 L 1140 172.75 L 1140 138.25 L 1146 138.25 L 1146 103.75 L 1140 103.75 L 1140 69.25 L 1146 69.25 L 1146 34.75 L 1140 34.75 L 1140 6 L 1111.25 6 L 1111.25 0 L 1076.75 0 L 1076.75 6 L 1042.25 6 L 1042.25 0 L 1007.75 0 L 1007.75 6 L 973.25 6 L 973.25 0 L 938.75 0 L 938.75 6 L 904.25 6 L 904.25 0 L 869.75 0 L 869.75 6 L 835.25 6 L 835.25 0 L 800.75 0 L 800.75 6 L 772 6 Z" id="bottom_outsideCutPath" stroke="#FF0000" stroke-width="0.1" style="stroke:#FF0000;stroke-width:0.1" vector-effect="non-scaling-stroke"/></g></svg>