<svg width="1353.2mm" height="386.2mm" viewBox="0 0 1353.2 386.2" xmlns="http://www.w3.org/2000/svg" version="1.1" preserveAspectRatio="xMidYMid meet"><g id="svgGroup" stroke-linecap="round" fill-rule="evenodd" font-size="9pt" stroke="#000" stroke-width="0.25mm" fill="none" style="stroke:#000;stroke-width:0.25mm;fill:none"><path d="M 45.5 380.2 L 75 380.2 L 75 386.2 L 105.5 386.2 L 105.5 380.2 L 135 380.2 L 135 386.2 L 165.5 386.2 L 165.5 380.2 L 195 380.2 L 195 386.2 L 225.5 386.2 L 225.5 380.2 L 255 380.2 L 255 386.2 L 285.5 386.2 L 285.5 380.2 L 315 380.2 L 315 386.2 L 345.5 386.2 L 345.5 380.2 L 375 380.2 L 375 386.2 L 405.5 386.2 L 405.5 380.2 L 435 380.2 L 435 386.2 L 480.5 386.2 L 480.5 365.7 L 474.5 365.7 L 474.5 336.2 L 480.5 336.2 L 480.5 305.7 L 474.5 305.7 L 474.5 276.2 L 480.5 276.2 L 480.5 255.7 L 0 255.7 L 0 276.2 L 6 276.2 L 6 305.7 L 0 305.7 L 0 336.2 L 6 336.2 L 6 365.7 L 0 365.7 L 0 386.2 L 45.5 386.2 L 45.5 380.2 Z" id="front_outsideCutPath" stroke="#FF0000" stroke-width="0.1" style="stroke:#FF0000;stroke-width:0.1" vector-effect="non-scaling-stroke"/><path d="M 511.85 380.2 L 541.35 380.2 L 541.35 386.2 L 571.85 386.2 L 571.85 380.2 L 601.35 380.2 L 601.35 386.2 L 631.85 386.2 L 631.85 380.2 L 661.35 380.2 L 661.35 386.2 L 691.85 386.2 L 691.85 380.2 L 721.35 380.2 L 721.35 386.2 L 751.85 386.2 L 751.85 380.2 L 781.35 380.2 L 781.35 386.2 L 811.85 386.2 L 811.85 380.2 L 841.35 380.2 L 841.35 386.2 L 863.7 386.2 L 863.7 366.2 L 869.7 366.2 L 869.7 335.7 L 863.7 335.7 L 863.7 306.2 L 869.7 306.2 L 869.7 275.7 L 863.7 275.7 L 863.7 255.7 L 489.5 255.7 L 489.5 275.7 L 483.5 275.7 L 483.5 306.2 L 489.5 306.2 L 489.5 335.7 L 483.5 335.7 L 483.5 366.2 L 489.5 366.2 L 489.5 386.2 L 511.85 386.2 L 511.85 380.2 Z" id="left_outsideCutPath" stroke="#FF0000" stroke-width="0.1" style="stroke:#FF0000;stroke-width:0.1" vector-effect="non-scaling-stroke"/><path d="M 45.5 246.7 L 75 246.7 L 75 252.7 L 105.5 252.7 L 105.5 246.7 L 135 246.7 L 135 252.7 L 165.5 252.7 L 165.5 246.7 L 195 246.7 L 195 252.7 L 225.5 252.7 L 225.5 246.7 L 255 246.7 L 255 252.7 L 285.5 252.7 L 285.5 246.7 L 315 246.7 L 315 252.7 L 345.5 252.7 L 345.5 246.7 L 375 246.7 L 375 252.7 L 405.5 252.7 L 405.5 246.7 L 435 246.7 L 435 252.7 L 480.5 252.7 L 480.5 232.2 L 474.5 232.2 L 474.5 202.7 L 480.5 202.7 L 480.5 172.2 L 474.5 172.2 L 474.5 142.7 L 480.5 142.7 L 480.5 122.2 L 0 122.2 L 0 142.7 L 6 142.7 L 6 172.2 L 0 172.2 L 0 202.7 L 6 202.7 L 6 232.2 L 0 232.2 L 0 252.7 L 45.5 252.7 L 45.5 246.7 Z" id="back_outsideCutPath" stroke="#FF0000" stroke-width="0.1" style="stroke:#FF0000;stroke-width:0.1" vector-effect="non-scaling-stroke"/><path d="M 511.85 246.7 L 541.35 246.7 L 541.35 252.7 L 571.85 252.7 L 571.85 246.7 L 601.35 246.7 L 601.35 252.7 L 631.85 252.7 L 631.85 246.7 L 661.35 246.7 L 661.35 252.7 L 691.85 252.7 L 691.85 246.7 L 721.35 246.7 L 721.35 252.7 L 751.85 252.7 L 751.85 246.7 L 781.35 246.7 L 781.35 252.7 L 811.85 252.7 L 811.85 246.7 L 841.35 246.7 L 841.35 252.7 L 863.7 252.7 L 863.7 232.7 L 869.7 232.7 L 869.7 202.2 L 863.7 202.2 L 863.7 172.7 L 869.7 172.7 L 869.7 142.2 L 863.7 142.2 L 863.7 122.2 L 489.5 122.2 L 489.5 142.2 L 483.5 142.2 L 483.5 172.7 L 489.5 172.7 L 489.5 202.2 L 483.5 202.2 L 483.5 232.7 L 489.5 232.7 L 489.5 252.7 L 511.85 252.7 L 511.85 246.7 Z" id="right_outsideCutPath" stroke="#FF0000" stroke-width="0.1" style="stroke:#FF0000;stroke-width:0.1" vector-effect="non-scaling-stroke"/><path d="M 948.2 380.2 L 977.7 380.2 L 977.7 386.2 L 1008.2 386.2 L 1008.2 380.2 L 1037.7 380.2 L 1037.7 386.2 L 1068.2 386.2 L 1068.2 380.2 L 1097.7 380.2 L 1097.7 386.2 L 1128.2 386.2 L 1128.2 380.2 L 1157.7 380.2 L 1157.7 386.2 L 1188.2 386.2 L 1188.2 380.2 L 1217.7 380.2 L 1217.7 386.2 L 1248.2 386.2 L 1248.2 380.2 L 1277.7 380.2 L 1277.7 386.2 L 1308.2 386.2 L 1308.2 380.2 L 1347.2 380.2 L 1347.2 358.35 L 1353.2 358.35 L 1353.2 327.85 L 1347.2 327.85 L 1347.2 298.35 L 1353.2 298.35 L 1353.2 267.85 L 1347.2 267.85 L 1347.2 238.35 L 1353.2 238.35 L 1353.2 207.85 L 1347.2 207.85 L 1347.2 178.35 L 1353.2 178.35 L 1353.2 147.85 L 1347.2 147.85 L 1347.2 118.35 L 1353.2 118.35 L 1353.2 87.85 L 1347.2 87.85 L 1347.2 58.35 L 1353.2 58.35 L 1353.2 27.85 L 1347.2 27.85 L 1347.2 6 L 1308.2 6 L 1308.2 0 L 1277.7 0 L 1277.7 6 L 1248.2 6 L 1248.2 0 L 1217.7 0 L 1217.7 6 L 1188.2 6 L 1188.2 0 L 1157.7 0 L 1157.7 6 L 1128.2 6 L 1128.2 0 L 1097.7 0 L 1097.7 6 L 1068.2 6 L 1068.2 0 L 1037.7 0 L 1037.7 6 L 1008.2 6 L 1008.2 0 L 977.7 0 L 977.7 6 L 948.2 6 L 948.2 0 L 917.7 0 L 917.7 6 L 878.7 6 L 878.7 27.85 L 872.7 27.85 L 872.7 58.35 L 878.7 58.35 L 878.7 87.85 L 872.7 87.85 L 872.7 118.35 L 878.7 118.35 L 878.7 147.85 L 872.7 147.85 L 872.7 178.35 L 878.7 178.35 L 878.7 207.85 L 872.7 207.85 L 872.7 238.35 L 878.7 238.35 L 878.7 267.85 L 872.7 267.85 L 872.7 298.35 L 878.7 298.35 L 878.7 327.85 L 872.7 327.85 L 872.7 358.35 L 878.7 358.35 L 878.7 380.2 L 917.7 380.2 L 917.7 386.2 L 948.2 386.2 L 948.2 380.2 Z" id="bottom_outsideCutPath" stroke="#FF0000" stroke-width="0.1" style="stroke:#FF0000;stroke-width:0.1" vector-effect="non-scaling-stroke"/></g></svg>